<svg width="1200" height="630" viewBox="0 0 1200 630" xmlns="http://www.w3.org/2000/svg" role="img" aria-label="tactic-spark · Management">
  <defs>
    <linearGradient id="navy" x1="0" y1="0" x2="1" y2="1">
      <stop offset="0" stop-color="#172554"/>
      <stop offset="1" stop-color="#0b1120"/>
    </linearGradient>
    <linearGradient id="accent" x1="0" y1="0" x2="0" y2="1">
      <stop offset="0" stop-color="#60a5fa"/>
      <stop offset="1" stop-color="#6366f1"/>
    </linearGradient>
    <linearGradient id="word" x1="0" y1="0" x2="1" y2="0">
      <stop offset="0" stop-color="#93c5fd"/>
      <stop offset="0.5" stop-color="#a5b4fc"/>
      <stop offset="1" stop-color="#c4b5fd"/>
    </linearGradient>
  </defs>
  <rect width="1200" height="630" fill="url(#navy)"/>
  <circle cx="980" cy="120" r="280" fill="none" stroke="#1e3a8a" stroke-width="1.5" opacity="0.35"/>
  <circle cx="980" cy="120" r="200" fill="none" stroke="#1e3a8a" stroke-width="1.5" opacity="0.25"/>
  <circle cx="980" cy="120" r="120" fill="none" stroke="#1e3a8a" stroke-width="1.5" opacity="0.18"/>

  <g transform="translate(472.5,122.5) scale(1.7)">
    <polygon points="75,26 118,50 118,100 75,124 32,100 32,50" fill="none" stroke="url(#accent)" stroke-width="5" stroke-linejoin="round"/>
    <polygon points="75,44 102,59 102,91 75,106 48,91 48,59" fill="#3b82f6" opacity="0.18"/>
    <line x1="75" y1="38" x2="75" y2="62" stroke="#60a5fa" stroke-width="3.5" stroke-linecap="round"/>
    <line x1="75" y1="88" x2="75" y2="112" stroke="#60a5fa" stroke-width="3.5" stroke-linecap="round"/>
    <line x1="38" y1="75" x2="62" y2="75" stroke="#60a5fa" stroke-width="3.5" stroke-linecap="round"/>
    <line x1="88" y1="75" x2="112" y2="75" stroke="#60a5fa" stroke-width="3.5" stroke-linecap="round"/>
    <circle cx="75" cy="75" r="9" fill="url(#accent)"/>
  </g>

  <text x="600" y="440" text-anchor="middle" fill="url(#word)" font-family="'Segoe UI', system-ui, sans-serif" font-size="92" font-weight="800" letter-spacing="-2">tactic-spark</text>
  <text x="600" y="500" text-anchor="middle" fill="#94a3b8" font-family="'Segoe UI', system-ui, sans-serif" font-size="30" font-weight="700" letter-spacing="7">MANAGEMENT</text>
</svg>
